<svg xmlns="http://www.w3.org/2000/svg" viewBox="0 0 1440 810" preserveAspectRatio="xMidYMid slice">
  <defs>
    <!-- Dark navy blue gradient background (matches user image) -->
    <radialGradient id="bgGrad" cx="55%" cy="45%" r="65%">
      <stop offset="0%"   stop-color="#1a2a5e"/>
      <stop offset="55%"  stop-color="#0e1a42"/>
      <stop offset="100%" stop-color="#060d22"/>
    </radialGradient>

    <!-- ECG glow filter -->
    <filter id="ecgGlow" x="-5%" y="-100%" width="110%" height="300%">
      <feGaussianBlur stdDeviation="1.5" result="blur"/>
      <feMerge><feMergeNode in="blur"/><feMergeNode in="SourceGraphic"/></feMerge>
    </filter>

    <!-- Heart glow filter -->
    <filter id="heartGlow" x="-30%" y="-30%" width="160%" height="160%">
      <feGaussianBlur stdDeviation="10" result="blur"/>
      <feMerge><feMergeNode in="blur"/><feMergeNode in="SourceGraphic"/></feMerge>
    </filter>
  </defs>

  <!-- Background -->
  <rect width="1440" height="810" fill="url(#bgGrad)"/>

  <!-- ═══════════════════════════════════════════════════════
       TOP HORIZONTAL ECG STRIP  (y ≈ 135)
       Pattern: flat → P-wave bump → QRS spike → T-wave → flat
       ═══════════════════════════════════════════════════════ -->
  <g filter="url(#ecgGlow)" opacity="0.85">
    <polyline fill="none" stroke="#c53030" stroke-width="1.7" stroke-linejoin="round" stroke-linecap="round"
      points="
        0,135
        30,135  38,135  42,132  46,135
        55,135  62,135  66,118  70,155  72,110  74,148  78,135
        108,135 116,135 120,132 124,135
        133,135 140,135 144,118 148,155 150,110 152,148 156,135
        186,135 194,135 198,132 202,135
        211,135 218,135 222,118 226,155 228,110 230,148 234,135
        264,135 272,135 276,132 280,135
        289,135 296,135 300,118 304,155 306,110 308,148 312,135
        342,135 350,135 354,132 358,135
        367,135 374,135 378,118 382,155 384,110 386,148 390,135
        420,135 428,135 432,132 436,135
        441,135
      "
    />
    <!-- Right half of top strip -->
    <polyline fill="none" stroke="#c53030" stroke-width="1.7" stroke-linejoin="round" stroke-linecap="round"
      points="
        999,135
        1005,135 1013,135 1017,132 1021,135
        1030,135 1037,135 1041,118 1045,155 1047,110 1049,148 1053,135
        1083,135 1091,135 1095,132 1099,135
        1108,135 1115,135 1119,118 1123,155 1125,110 1127,148 1131,135
        1161,135 1169,135 1173,132 1177,135
        1186,135 1193,135 1197,118 1201,155 1203,110 1205,148 1209,135
        1239,135 1247,135 1251,132 1255,135
        1264,135 1271,135 1275,118 1279,155 1281,110 1283,148 1287,135
        1317,135 1325,135 1329,132 1333,135
        1342,135 1349,135 1353,118 1357,155 1359,110 1361,148 1365,135
        1395,135 1403,135 1407,132 1411,135
        1420,135 1427,135 1431,118 1435,155 1437,110 1439,148
        1440,135
      "
    />
  </g>

  <!-- ═══════════════════════════════════════════════════════
       BOTTOM HORIZONTAL ECG STRIP  (y ≈ 655)
       ═══════════════════════════════════════════════════════ -->
  <g filter="url(#ecgGlow)" opacity="0.8">
    <polyline fill="none" stroke="#c53030" stroke-width="1.7" stroke-linejoin="round" stroke-linecap="round"
      points="
        0,655
        35,655  43,655  47,652  51,655
        60,655  67,655  71,638  75,672  77,628  79,665  83,655
        113,655 121,655 125,652 129,655
        138,655 145,655 149,638 153,672 155,628 157,665 161,655
        191,655 199,655 203,652 207,655
        216,655 223,655 227,638 231,672 233,628 235,665 239,655
        269,655 277,655 281,652 285,655
        294,655 301,655 305,638 309,672 311,628 313,665 317,655
        347,655 355,655 359,652 363,655
        372,655 379,655 383,638 387,672 389,628 391,665 395,655
        425,655 433,655 437,652 441,655
        446,655
      "
    />
    <polyline fill="none" stroke="#c53030" stroke-width="1.7" stroke-linejoin="round" stroke-linecap="round"
      points="
        994,655
        1002,655 1010,655 1014,652 1018,655
        1027,655 1034,655 1038,638 1042,672 1044,628 1046,665 1050,655
        1080,655 1088,655 1092,652 1096,655
        1105,655 1112,655 1116,638 1120,672 1122,628 1124,665 1128,655
        1158,655 1166,655 1170,652 1174,655
        1183,655 1190,655 1194,638 1198,672 1200,628 1202,665 1206,655
        1236,655 1244,655 1248,652 1252,655
        1261,655 1268,655 1272,638 1276,672 1278,628 1280,665 1284,655
        1314,655 1322,655 1326,652 1330,655
        1339,655 1346,655 1350,638 1354,672 1356,628 1358,665 1362,655
        1392,655 1400,655 1404,652 1408,655
        1417,655 1424,655 1428,638 1432,672 1434,628 1436,665 1440,655
      "
    />
  </g>

  <!-- ═══════════════════════════════════════════════════════
       VERTICAL ECG STRIP  (x ≈ 442, from top to bottom strip)
       ═══════════════════════════════════════════════════════ -->
  <g filter="url(#ecgGlow)" opacity="0.8">
    <polyline fill="none" stroke="#c53030" stroke-width="1.7" stroke-linejoin="round" stroke-linecap="round"
      points="
        442,135
        442,165  442,175  439,179  442,183
        442,192  442,199  425,203  459,207  415,209  452,213  442,223
        442,253  442,261  439,265  442,269
        442,278  442,285  425,289  459,293  415,295  452,299  442,309
        442,339  442,347  439,351  442,355
        442,364  442,371  425,375  459,379  415,381  452,385  442,395
        442,425  442,433  439,437  442,441
        442,450  442,457  425,461  459,465  415,467  452,471  442,481
        442,511  442,519  439,523  442,527
        442,536  442,543  425,547  459,551  415,553  452,557  442,567
        442,597  442,605  439,609  442,613
        442,622  442,629  425,633  459,637  415,639  452,643  442,655
      "
    />
  </g>

  <!-- ═══════════════════════════════════════════════════════
       HEART OUTLINE — centered at (780, 400)
       Classic love-heart, large and subtle (matches user image)
       ═══════════════════════════════════════════════════════ -->
  <g filter="url(#heartGlow)" opacity="0.18">
    <!-- Main heart path using cubic bezier curves -->
    <path
      d="M780,520 C680,450 580,390 580,300 C580,240 630,200 680,200 C720,200 760,220 780,250 C800,220 840,200 880,200 C930,200 980,240 980,300 C980,390 880,450 780,520 Z"
      fill="none" stroke="#c53030" stroke-width="3"
    />
    <!-- Inner heart / aorta decorative lines -->
    <path
      d="M780,250 C780,230 770,215 760,210"
      fill="none" stroke="#c53030" stroke-width="1.5" opacity="0.7"
    />
    <path
      d="M780,250 C780,230 790,215 800,210"
      fill="none" stroke="#c53030" stroke-width="1.5" opacity="0.7"
    />
  </g>

  <!-- ═══════════════════════════════════════════════════════
       SMALL SCATTERED HEARTS
       ═══════════════════════════════════════════════════════ -->
  <g opacity="0.18" fill="#c53030">
    <!-- heart at left ~(120, 290) -->
    <path transform="translate(120,290) scale(0.6)"
      d="M0,14 C-4,10 -12,5 -12,-4 C-12,-10 -6,-14 0,-10 C6,-14 12,-10 12,-4 C12,5 4,10 0,14 Z"/>
    <!-- heart at left ~(310, 525) -->
    <path transform="translate(310,525) scale(0.5)"
      d="M0,14 C-4,10 -12,5 -12,-4 C-12,-10 -6,-14 0,-10 C6,-14 12,-10 12,-4 C12,5 4,10 0,14 Z"/>
    <!-- heart near top center ~(680, 230) -->
    <path transform="translate(680,230) scale(0.55)"
      d="M0,14 C-4,10 -12,5 -12,-4 C-12,-10 -6,-14 0,-10 C6,-14 12,-10 12,-4 C12,5 4,10 0,14 Z"/>
    <!-- heart right ~(1310, 285) -->
    <path transform="translate(1310,285) scale(0.55)"
      d="M0,14 C-4,10 -12,5 -12,-4 C-12,-10 -6,-14 0,-10 C6,-14 12,-10 12,-4 C12,5 4,10 0,14 Z"/>
    <!-- heart bottom-center ~(660, 635) -->
    <path transform="translate(660,635) scale(0.5)"
      d="M0,14 C-4,10 -12,5 -12,-4 C-12,-10 -6,-14 0,-10 C6,-14 12,-10 12,-4 C12,5 4,10 0,14 Z"/>
    <!-- heart right-mid ~(1200, 500) -->
    <path transform="translate(1200,500) scale(0.5)"
      d="M0,14 C-4,10 -12,5 -12,-4 C-12,-10 -6,-14 0,-10 C6,-14 12,-10 12,-4 C12,5 4,10 0,14 Z"/>
    <!-- heart bottom-left ~(210, 660) -->
    <path transform="translate(210,660) scale(0.45)"
      d="M0,14 C-4,10 -12,5 -12,-4 C-12,-10 -6,-14 0,-10 C6,-14 12,-10 12,-4 C12,5 4,10 0,14 Z"/>
  </g>
</svg>
